<?xml version="1.0" encoding="UTF-8"?>
<svg height="600" width="800" xmlns="http://www.w3.org/2000/svg" xmlns:xlink="http://www.w3.org/1999/xlink">
    <g id="Notes" font-family="'LucidaGrande', 'Lucida Grande', sans-serif" font-size="13">
        <rect fill="white" height="600.0" width="800.0" x="0.0" y="0.0" />
        <g font-size="13">
            <text x="18.0" y="176.0">Small</text>
            <text x="18.0" y="376.0">Medium</text>
            <text x="18.0" y="576.0">Large</text>
        </g>
        <g font-size="9">
            <text x="250.0" y="30.0">Ultralight</text>
            <text x="450.0" y="30.0">Regular</text>
            <text x="650.0" y="30.0">Black</text>
            <text id="template-version" fill="#505050" text-anchor="end" x="785.0" y="575.0">Template v.3.0</text>
            <a href="https://wangchujiang.com/#/app">
                <text fill="#505050" text-anchor="end" x="785.0" y="590.0">https://wangchujiang.com/#/app</text>
            </a>
        </g>
    </g>
    <g id="Guides" stroke="rgb(39, 170, 225)" stroke-width="0.5">
        <path id="Capline-S" d="M18,76 l800,0" />
        <path id="H-reference" d="M85,145.755 L87.685,145.755 L113.369,79.287 L114.052,79.287 L114.052,76 L112.148,76 L85,145.755 Z M95.693,121.536 L130.996,121.536 L130.263,119.313 L96.474,119.313 L95.693,121.536 Z M139.15,145.755 L141.787,145.755 L114.638,76 L113.466,76 L113.466,79.287 L139.15,145.755 Z" stroke="none" />
        <path id="Baseline-S" d="M18,146 l800,0" />
        <path id="left-margin-Ultralight-S" d="M221,56 l0,110" />
        <path id="right-margin-Ultralight-S" d="M309,56 l0,110" />
        <path id="left-margin-Regular-S" d="M421,56 l0,110" />
        <path id="right-margin-Regular-S" d="M509,56 l0,110" />
        <path id="left-margin-Black-S" d="M621,56 l0,110" />
        <path id="right-margin-Black-S" d="M709,56 l0,110" />
        <path id="Capline-M" d="M18,276 l800,0" />
        <path id="Baseline-M" d="M18,346 l800,0" />
        <path id="Capline-L" d="M18,476 l800,0" />
        <path id="Baseline-L" d="M18,546 l800,0" />
    </g>
    <g id="Symbols">
        <g id="Ultralight-S">
            <path d="M264.884,145.952 C261.738,145.952 258.589,146.032 255.448,145.924 C253.288,145.849 251.239,145.247 249.347,144.304 C242.213,140.748 237.736,135.49 235.781,128.611 C235.058,126.063 234.884,123.472 235.082,120.871 C235.464,115.849 237.395,111.318 241.055,107.364 C241.526,106.857 242.006,106.354 242.521,105.879 C243.163,105.287 243.176,105.094 242.689,104.388 C241.591,102.795 240.457,101.218 239.466,99.576 C238.2,97.48 237.322,95.246 236.912,92.904 C236.26,89.167 237.166,85.73 239.835,82.699 C242.389,79.798 245.83,78.041 249.909,77.245 C251.982,76.841 254.103,76.589 256.215,76.37 C260.337,75.944 264.485,75.946 268.623,76.079 C271.406,76.168 274.192,76.391 276.954,76.701 C279.696,77.009 282.373,77.612 284.829,78.773 C289.21,80.845 291.995,83.963 293.043,88.188 C293.652,90.648 293.29,93.063 292.476,95.447 C291.396,98.61 289.6,101.471 287.483,104.195 C287.399,104.303 287.308,104.406 287.226,104.516 C286.852,105.016 286.884,105.383 287.359,105.808 C289.833,108.029 291.654,110.607 292.99,113.45 C293.886,115.354 294.38,117.342 294.715,119.372 C295.036,121.317 295.071,123.266 294.866,125.212 C294.47,128.964 293.155,132.468 290.892,135.704 C288.223,139.521 284.675,142.537 280.058,144.586 C277.806,145.585 275.387,145.983 272.874,145.994 C270.211,146.006 267.549,145.996 264.887,145.996 L264.887,145.951 L264.883,145.951 Z M245.998,90.973 C246.055,91.424 246.061,91.885 246.179,92.324 C246.876,94.943 248.177,97.331 249.984,99.516 C250.756,100.448 250.901,100.48 252.098,99.973 C255.638,98.476 259.422,97.832 263.318,97.648 C265.534,97.544 267.75,97.646 269.954,97.931 C272.796,98.3 275.52,98.974 278.079,100.112 C278.917,100.485 279.328,100.401 279.894,99.75 C281.628,97.76 282.818,95.541 283.621,93.162 C283.991,92.065 284.127,90.949 283.854,89.817 C283.365,87.789 281.858,86.481 279.745,85.67 C277.596,84.846 275.273,84.588 272.965,84.353 C271.124,84.166 269.27,84.057 267.416,83.997 C263.171,83.858 258.933,83.982 254.737,84.591 C253.369,84.789 251.988,85.044 250.689,85.452 C247.664,86.402 246.02,88.426 245.998,90.973 L245.997,90.973 Z" />
        </g>
        <g id="Regular-S">
            <path d="M464.884,145.952 C461.738,145.952 458.589,146.032 455.448,145.924 C453.288,145.849 451.239,145.247 449.347,144.304 C442.213,140.748 437.736,135.49 435.781,128.611 C435.058,126.063 434.884,123.472 435.082,120.871 C435.464,115.849 437.395,111.318 441.055,107.364 C441.526,106.857 442.006,106.354 442.521,105.879 C443.163,105.287 443.176,105.094 442.689,104.388 C441.591,102.795 440.457,101.218 439.466,99.576 C438.2,97.48 437.322,95.246 436.912,92.904 C436.26,89.167 437.166,85.73 439.835,82.699 C442.389,79.798 445.83,78.041 449.909,77.245 C451.982,76.841 454.103,76.589 456.215,76.37 C460.337,75.944 464.485,75.946 468.623,76.079 C471.406,76.168 474.192,76.391 476.954,76.701 C479.696,77.009 482.373,77.612 484.829,78.773 C489.21,80.845 491.995,83.963 493.043,88.188 C493.652,90.648 493.29,93.063 492.476,95.447 C491.396,98.61 489.6,101.471 487.483,104.195 C487.399,104.303 487.308,104.406 487.226,104.516 C486.852,105.016 486.884,105.383 487.359,105.808 C489.833,108.029 491.654,110.607 492.99,113.45 C493.886,115.354 494.38,117.342 494.715,119.372 C495.036,121.317 495.071,123.266 494.866,125.212 C494.47,128.964 493.155,132.468 490.892,135.704 C488.223,139.521 484.675,142.537 480.058,144.586 C477.806,145.585 475.387,145.983 472.874,145.994 C470.211,146.006 467.549,145.996 464.887,145.996 L464.887,145.951 L464.883,145.951 Z M445.998,90.973 C446.055,91.424 446.061,91.885 446.179,92.324 C446.876,94.943 448.177,97.331 449.984,99.516 C450.756,100.448 450.901,100.48 452.098,99.973 C455.638,98.476 459.422,97.832 463.318,97.648 C465.534,97.544 467.75,97.646 469.954,97.931 C472.796,98.3 475.52,98.974 478.079,100.112 C478.917,100.485 479.327,100.401 479.894,99.75 C481.628,97.76 482.818,95.541 483.621,93.162 C483.991,92.065 484.127,90.949 483.854,89.817 C483.365,87.789 481.858,86.481 479.745,85.67 C477.596,84.846 475.273,84.588 472.965,84.353 C471.124,84.166 469.269,84.057 467.416,83.997 C463.171,83.858 458.933,83.982 454.737,84.591 C453.369,84.789 451.988,85.044 450.689,85.452 C447.664,86.402 446.02,88.426 445.998,90.973 L445.997,90.973 Z" />
        </g>
        <g id="Black-S">
            <path d="M664.884,145.952 C661.738,145.952 658.589,146.032 655.448,145.924 C653.288,145.849 651.239,145.247 649.347,144.304 C642.213,140.748 637.736,135.49 635.781,128.611 C635.058,126.063 634.884,123.472 635.082,120.871 C635.464,115.849 637.395,111.318 641.055,107.364 C641.526,106.857 642.006,106.354 642.521,105.879 C643.163,105.287 643.176,105.094 642.689,104.388 C641.591,102.795 640.457,101.218 639.466,99.576 C638.201,97.48 637.322,95.246 636.912,92.904 C636.26,89.167 637.166,85.73 639.835,82.699 C642.389,79.798 645.83,78.041 649.909,77.245 C651.982,76.841 654.103,76.589 656.216,76.37 C660.337,75.944 664.485,75.946 668.623,76.079 C671.406,76.168 674.192,76.391 676.954,76.701 C679.696,77.009 682.373,77.612 684.829,78.773 C689.21,80.845 691.995,83.963 693.043,88.188 C693.652,90.648 693.29,93.063 692.476,95.447 C691.396,98.61 689.6,101.471 687.483,104.195 C687.399,104.303 687.308,104.406 687.226,104.516 C686.852,105.016 686.884,105.383 687.359,105.808 C689.833,108.029 691.654,110.607 692.99,113.45 C693.886,115.354 694.38,117.342 694.715,119.372 C695.036,121.317 695.071,123.266 694.866,125.212 C694.47,128.964 693.155,132.468 690.892,135.704 C688.223,139.521 684.675,142.537 680.058,144.586 C677.806,145.585 675.387,145.983 672.874,145.994 C670.211,146.006 667.549,145.996 664.887,145.996 L664.887,145.951 L664.883,145.951 Z M645.998,90.973 C646.055,91.424 646.061,91.885 646.179,92.324 C646.876,94.943 648.177,97.331 649.984,99.516 C650.756,100.448 650.901,100.48 652.098,99.973 C655.638,98.476 659.422,97.832 663.318,97.648 C665.534,97.544 667.75,97.646 669.954,97.931 C672.796,98.3 675.52,98.974 678.079,100.112 C678.917,100.485 679.328,100.401 679.894,99.75 C681.628,97.76 682.818,95.541 683.621,93.162 C683.992,92.065 684.127,90.949 683.854,89.817 C683.365,87.789 681.858,86.481 679.745,85.67 C677.596,84.846 675.273,84.588 672.965,84.353 C671.124,84.166 669.27,84.057 667.416,83.997 C663.171,83.858 658.933,83.982 654.737,84.591 C653.369,84.789 651.988,85.044 650.689,85.452 C647.664,86.402 646.02,88.426 645.998,90.973 L645.997,90.973 Z" />
        </g>
    </g>
</svg>