<?xml version="1.0" encoding="UTF-8"?>
<svg id="Layer_1" data-name="Layer 1" xmlns="http://www.w3.org/2000/svg" viewBox="0 0 247.35 333.48">
  <path d="M123.82,.45c20.98,0,42.02-.96,62.94,.19,53.52,2.94,71.86,55.02,53.93,91.79-7.44,15.26-14.89,30.52-22.5,45.7-4.49,8.95-4.23,17.51,.84,26.13,40.61,69.03,.42,154.81-78.58,167.8-67.73,11.14-130.41-44.23-128.13-113.07,.65-19.58,5.84-37.74,15.86-54.53,5.11-8.56,5.46-17.22,1.02-26.16-7.41-14.91-14.86-29.8-22.06-44.81C-5.35,67.47-1.22,38.2,17.75,18.81,31.46,4.8,48.93,.26,67.84,.09c18.66-.17,37.32-.04,55.97-.04V.45Zm.03,41.53c-17.83,0-35.65-.03-53.48,.03-3.16,0-6.33,.2-9.47,.59-14.19,1.77-21.57,12.42-18.25,26.4,.57,2.4,1.53,4.76,2.61,6.99,5.54,11.38,11.13,22.73,16.8,34.04,4.59,9.15,11.28,11.36,21.17,8.11,7.87-2.59,15.92-4.97,24.08-6.3,19.64-3.19,38.81-.8,57.4,6.41,7.84,3.04,15.3,1.33,18.82-5.33,7.22-13.68,14.48-27.43,20.32-41.72,5.86-14.35-2.63-26.89-18.05-28.66-3.14-.36-6.31-.51-9.47-.52-17.49-.05-34.99-.02-52.48-.02Zm-4.8,87.05c-46.26-3.81-91.85,41.04-88.3,88.16,9.19-49.76,38.5-79.18,88.3-88.16ZM4.66,60.38c2.64-7.71,4.51-15.32,7.84-22.23,3.29-6.81,8.06-12.91,12.56-19.91C11.03,29.16,4.92,43.11,4.66,60.38Z"/>
</svg>